<svg xmlns="http://www.w3.org/2000/svg" xmlns:xlink="http://www.w3.org/1999/xlink" width="96" zoomAndPan="magnify" viewBox="0 0 72 72" height="96" preserveAspectRatio="xMidYMid meet" version="1.0"><path fill="#ffffff" d="M 63.933594 0 C 51.96875 0 35.910156 8.210938 25.125 22.324219 L 16.1875 22.324219 C 9.726562 22.324219 6.027344 27.148438 3.476562 32.246094 L 0.0664062 39.070312 L 16.1875 39.070312 L 24.558594 47.441406 L 32.933594 55.8125 L 32.933594 71.9375 L 39.757812 68.523438 C 44.855469 65.976562 49.675781 62.273438 49.675781 55.8125 L 49.675781 46.875 C 63.792969 36.089844 72 20.035156 72 8.066406 L 72 0 Z M 49.675781 16.746094 C 52.757812 16.746094 55.257812 19.242188 55.257812 22.324219 C 55.257812 25.40625 52.757812 27.90625 49.675781 27.90625 C 46.59375 27.90625 44.09375 25.40625 44.09375 22.324219 C 44.09375 19.242188 46.59375 16.746094 49.675781 16.746094 Z M 13.398438 50.234375 L 10.605469 53.023438 C 6.574219 57.054688 5.023438 66.976562 5.023438 66.976562 C 5.023438 66.976562 14.503906 65.871094 18.976562 61.394531 L 21.769531 58.605469 Z M 13.398438 50.234375 " fill-opacity="1" fill-rule="nonzero"/></svg>